<svg viewBox="0 0 560 460" width="560" height="460" xmlns="http://www.w3.org/2000/svg"><defs><filter id="a-paper" x="-15%" y="-15%" width="130%" height="130%" color-interpolation-filters="sRGB"><feFlood flood-color="#FFD93B"/><feComposite in2="SourceAlpha" operator="in"/><feOffset dx="-3.4" dy="-2.6" result="rim"/><feFlood flood-color="#0B5C80" flood-opacity=".22"/><feComposite in2="SourceAlpha" operator="in"/><feOffset dx="2" dy="2.2" result="drop"/><feMerge><feMergeNode in="drop"/><feMergeNode in="rim"/><feMergeNode in="SourceGraphic"/></feMerge></filter><filter id="a-piece" x="-10%" y="-10%" width="125%" height="125%" color-interpolation-filters="sRGB"><feFlood flood-color="#12294A" flood-opacity=".2"/><feComposite in2="SourceAlpha" operator="in"/><feOffset dx="1.4" dy="1.6" result="s"/><feMerge><feMergeNode in="s"/><feMergeNode in="SourceGraphic"/></feMerge></filter><filter id="a-cast" x="-30%" y="-60%" width="160%" height="220%" color-interpolation-filters="sRGB"><feFlood flood-color="#0B5C80" flood-opacity=".2"/><feComposite in2="SourceAlpha" operator="in"/></filter><radialGradient id="a-glow"><stop offset="0" stop-color="#FFF6C8" stop-opacity=".95"/><stop offset=".55" stop-color="#FFE680" stop-opacity=".45"/><stop offset="1" stop-color="#FFE680" stop-opacity="0"/></radialGradient><linearGradient id="a-beam" x1="0" y1="0" x2=".55" y2="1"><stop offset="0" stop-color="#FFEC9A" stop-opacity=".72"/><stop offset="1" stop-color="#FFE27A" stop-opacity=".36"/></linearGradient><linearGradient id="a-sky" x1="0" y1="0" x2="0" y2="1"><stop offset="0" stop-color="#BFE2F4"/><stop offset=".62" stop-color="#E9F5FB"/><stop offset="1" stop-color="#FFEFC9"/></linearGradient><radialGradient id="a-sun"><stop offset="0" stop-color="#FFF8D6"/><stop offset=".3" stop-color="#FFE68A"/><stop offset="1" stop-color="#FFE68A" stop-opacity="0"/></radialGradient><linearGradient id="a-wall" x1="0" y1="0" x2="0" y2="1"><stop offset="0" stop-color="#CFE8F4"/><stop offset="1" stop-color="#D8EDF6"/></linearGradient><linearGradient id="a-floor" x1="0" y1="0" x2="0" y2="1"><stop offset="0" stop-color="#D7E6EA"/><stop offset="1" stop-color="#E8F1F3"/></linearGradient></defs><rect width="560" height="300" fill="url(#a-wall)"/><rect y="300" width="560" height="160" fill="url(#a-floor)"/><path d="M-560 300L-1720.7 460M-490 300L-1554 460M-420 300L-1387.3 460M-350 300L-1220.5 460M-280 300L-1053.8 460M-210 300L-887.1 460M-140 300L-720.4 460M-70 300L-553.6 460M0 300L-386.9 460M70 300L-220.2 460M140 300L-53.5 460M210 300L113.3 460M280 300L280 460M350 300L446.7 460M420 300L613.5 460M490 300L780.2 460M560 300L946.9 460M630 300L1113.6 460M700 300L1280.4 460M770 300L1447.1 460M840 300L1613.8 460M910 300L1780.5 460M980 300L1947.3 460M1050 300L2114 460M1120 300L2280.7 460M0 320H560M0 352H560M0 396H560" stroke="#CADCE2" stroke-width="1.2"/><rect y="292" width="560" height="12" fill="#BFDDEA"/><g class="scene-light" data-beam=""><path d="M40 26L216 26L452 456L190 456L40 258Z" fill="url(#a-beam)"/></g><clipPath id="a-v40"><rect x="40" y="26" width="176" height="232"/></clipPath><g clip-path="url(#a-v40)"><rect x="40" y="26" width="176" height="232" fill="url(#a-sky)"/><circle cx="96" cy="210" r="96.8" fill="url(#a-sun)"/><circle cx="96" cy="210" r="17.6" fill="#FFF3B8"/><path d="M40 211.6C92.8 204.6 163.2 216.2 216 209.3V258H40Z" fill="#E4F0F7"/><rect x="183.6" y="221.2" width="4.8" height="7.2" fill="#6C5445"/><path d="M186 187.6L198 205.6H174Z" fill="#5E8C86"/><path d="M186 187.6L190.2 193.8Q186 191.9 181.8 193.8Z" fill="#FFFFFF"/><path d="M186 198.4L202.8 216.4H169.2Z" fill="#5E8C86"/><path d="M186 198.4L191.9 204.6Q186 202.7 180.1 204.6Z" fill="#FFFFFF"/><path d="M186 209.2L207.6 227.2H164.4Z" fill="#5E8C86"/><path d="M186 209.2L193.6 215.4Q186 213.5 178.4 215.4Z" fill="#FFFFFF"/><path d="M40 223.2C101.6 216.2 145.6 230.2 216 220.9V258H40Z" fill="#FFFFFF"/></g><path fill-rule="evenodd" d="M31 17h194v250h-194ZM40 26v232h176v-232Z" fill="#FFFFFF"/><rect x="125.5" y="26" width="5" height="232" fill="#FFFFFF"/><rect x="40" y="100.8" width="176" height="5" fill="#FFFFFF"/><rect x="40" y="178.2" width="176" height="5" fill="#FFFFFF"/><rect x="24" y="264" width="208" height="10" rx="3" fill="#FFFFFF"/><rect x="24" y="272" width="208" height="3" fill="#BFDDEA"/><g class="scene-light" data-beam=""><path d="M153.8 337.8L217.7 337.8L234.9 374.2L166.1 374.2ZM167.4 377.8L236.5 377.8L253.7 414.2L179.7 414.2ZM180.9 417.8L255.4 417.8L272.6 454.2L193.3 454.2ZM224 337.8L288 337.8L310.4 374.2L241.6 374.2ZM243.4 377.8L312.6 377.8L335 414.2L261 414.2ZM262.8 417.8L337.2 417.8L359.6 454.2L280.4 454.2ZM294.3 337.8L358.2 337.8L385.9 374.2L317.2 374.2ZM319.4 377.8L388.6 377.8L416.3 414.2L342.3 414.2ZM344.6 417.8L419 417.8L446.7 454.2L367.5 454.2Z" fill="#FFE68F"/><circle class="mote" style="animation-delay:-1.3s;animation-duration:11s" cx="200" cy="140" r="2" fill="#FFFFFF" opacity=".85"/><circle class="mote" style="animation-delay:-3s;animation-duration:12.3s" cx="260" cy="210" r="1.6" fill="#FFFFFF" opacity=".85"/><circle class="mote" style="animation-delay:-4.7s;animation-duration:13.6s" cx="300" cy="120" r="2" fill="#FFFFFF" opacity=".85"/><circle class="mote" style="animation-delay:-6.4s;animation-duration:14.9s" cx="232" cy="280" r="1.4" fill="#FFFFFF" opacity=".85"/></g><circle cx="318" cy="244" r="92" fill="url(#a-glow)"/><g class="kid" transform="translate(500 448)"><use href="#a-k1" transform="matrix(1 0 -.3 -.1 0 0)" filter="url(#a-cast)"/><g filter="url(#a-paper)"><g id="a-k1"><path d="M-11.4 -95.1L-49.2 -95.7L-30 -66" fill="none" stroke="#442617" stroke-width="14.3" stroke-linecap="round" stroke-linejoin="round"/><path d="M-11.4 -95.1L-33.3 -95.4" fill="none" stroke="#D6B631" stroke-width="19.1" stroke-linecap="round" stroke-linejoin="round"/><circle cx="-26.8" cy="-61.1" r="10.6" fill="#442617"/><path d="M-13.5 -32.5L-32.4 -87L-37.7 -31.8" fill="none" stroke="#6B4E8C" stroke-width="22.4" stroke-linecap="round" stroke-linejoin="round"/><path d="M-28 -24.5L-26.7 -34.4Q-26.1 -41.1 -34.7 -40L-44.4 -37.8Q-60.3 -38.4 -59.1 -24.5Z" fill="#1B9BD1"/><path d="M-27.4 -27.8L-59.7 -27.8L-59.7 -23.6L-27.4 -23.6Z" fill="#FFFFFF" stroke="#FFFFFF" stroke-width="2.6" stroke-linejoin="round"/><path d="M13.1 -28.7L-32.1 -64.6L-51.5 -12.6" fill="none" stroke="#6B4E8C" stroke-width="22.4" stroke-linecap="round" stroke-linejoin="round"/><path d="M-41.8 -5.3L-40.5 -15.3Q-39.9 -21.9 -48.5 -20.8L-58.2 -18.6Q-74.1 -19.2 -72.9 -5.3Z" fill="#1B9BD1"/><path d="M-41.2 -8.7L-73.5 -8.7L-73.5 -4.4L-41.2 -4.4Z" fill="#FFFFFF" stroke="#FFFFFF" stroke-width="2.6" stroke-linejoin="round"/><path d="M-25 -42.7L26.9 -35.4L25.6 -22L-27.4 -29.4Z" fill="#6B4E8C" stroke="#6B4E8C" stroke-width="11.2" stroke-linejoin="round"/><path d="M-26.5 -31.4Q-27.9 -68.1 -21.5 -90.8Q-19.3 -106.2 -7.1 -104.5L26.8 -99.7Q39 -98 36.9 -82.6Q35.4 -59.2 25.4 -24.1Z" fill="#FFD93B"/><path d="M-23.1 -71L33 -63.1" fill="none" stroke="#FF7A1A" stroke-width="5" stroke-linecap="butt" stroke-linejoin="round"/><g filter="url(#a-piece)"><g transform="translate(13.2 -126.2) rotate(16.8)"><circle cx="-23.8" cy="-21.7" r="13.6" fill="#1C1717"/><circle cx="25" cy="-21.7" r="13.6" fill="#1C1717"/><circle cx=".6" cy="-2.2" r="27.9" fill="#1C1717"/><circle cx="24.9" cy="3.3" r="5.2" fill="#5A3420"/><ellipse cx="0" cy="0" rx="27.1" ry="27.1" fill="#5A3420"/><path d="M-24.7 -8.7A28.2 28.2 0 1 1 24.7 -8.7Q19.3 -16.3 -3.2 -13Q-8 -21.1 -9.3 -12.2Q-17.9 -19 -24.7 -8.7Z" fill="#1C1717"/><circle cx="-16.2" cy="-16.8" r="3.5" fill="#5CC3E8"/><circle cx="17.4" cy="-16.8" r="3.5" fill="#5CC3E8"/><path d="M-14.5 3.5Q-11.2 -1.1 -8 3.5" fill="none" stroke="#12294A" stroke-width="2" stroke-linecap="round"/><path d="M3.7 3.5Q6.9 -1.1 10.2 3.5" fill="none" stroke="#12294A" stroke-width="2" stroke-linecap="round"/><path d="M-6.1 7Q-8.5 10 -5.6 10.8" fill="none" stroke="#442617" stroke-width="1.9" stroke-linecap="round"/><path d="M-8.8 12.5Q-3.4 18.2 2 12.5" fill="none" stroke="#12294A" stroke-width="2" stroke-linecap="round"/></g></g><g filter="url(#a-piece)"><path d="M28.3 -89.5L-6.5 -74.8L-40.3 -64.1" fill="none" stroke="#5A3420" stroke-width="14.3" stroke-linecap="round" stroke-linejoin="round"/><path d="M28.3 -89.5L8.1 -81" fill="none" stroke="#FFD93B" stroke-width="19.1" stroke-linecap="round" stroke-linejoin="round"/><circle cx="-45.8" cy="-62.4" r="10.6" fill="#5A3420"/></g></g></g></g><g class="kid" transform="translate(404 412)"><use href="#a-k2" transform="matrix(1 0 -.3 -.1 0 0)" filter="url(#a-cast)"/><g filter="url(#a-paper)"><g id="a-k2"><path d="M-14.3 -92L-19.4 0M34.3 -92L39.4 0" stroke="#084560" stroke-width="7" stroke-linecap="round"/><rect x="-22" y="-98" width="64" height="13" rx="6" fill="#0B5C80"/><path d="M-50.1 -193.5L-69.5 -133.6L-128 -144" fill="none" stroke="#1682AF" stroke-width="20.2" stroke-linecap="round" stroke-linejoin="round"/><circle cx="-134.8" cy="-145.2" r="12.5" fill="#87512E"/><path d="M-19.4 -99.6L-108.2 -124.9L-83.3 -39.7" fill="none" stroke="#C9A06A" stroke-width="27.4" stroke-linecap="round" stroke-linejoin="round"/><path d="M-71.8 -29L-70.3 -43.6Q-69.6 -53.4 -79.7 -51.8L-91.2 -48.5Q-109.9 -49.5 -108.5 -29Z" fill="#5B3A2A"/><path d="M-71 -33.9L-109.2 -33.9L-109.2 -27.6L-71 -27.6Z" fill="#E8D9C4" stroke="#E8D9C4" stroke-width="3.9" stroke-linejoin="round"/><path d="M20.3 -108L-72 -109.5L-92 -23.1" fill="none" stroke="#C9A06A" stroke-width="27.4" stroke-linecap="round" stroke-linejoin="round"/><path d="M-80.5 -12.4L-79.1 -27Q-78.4 -36.8 -88.4 -35.2L-100 -31.9Q-118.7 -32.9 -117.2 -12.4Z" fill="#5B3A2A"/><path d="M-79.8 -17.2L-118 -17.2L-118 -11L-79.8 -11Z" fill="#E8D9C4" stroke="#E8D9C4" stroke-width="3.9" stroke-linejoin="round"/><path d="M-38 -109.3L33.3 -124.5L38.4 -103.9L-34.3 -88.4Z" fill="#C9A06A" stroke="#C9A06A" stroke-width="13.7" stroke-linejoin="round"/><path d="M-34.2 -91.9Q-57.1 -145.2 -59.9 -182.3Q-65 -206.3 -47.5 -210L1.1 -220.3Q18.6 -224.1 23.7 -200Q33.9 -164.5 37 -107Z" fill="#1B9BD1"/><g filter="url(#a-piece)"><g transform="translate(-28.6 -240.5) rotate(-14.2)"><circle cx="1" cy="-2.9" r="30" fill="#2A1A12"/><circle cx="26.3" cy="3.5" r="5.5" fill="#A5683F"/><ellipse cx="0" cy="0" rx="28.8" ry="28.8" fill="#A5683F"/><path d="M-27.8 -7.5A30.5 30.5 0 1 1 27.8 -7.5Q22 -15.6 1.9 -12.1Q-8.9 -20.7 -21.8 -11.2Q-20.6 -18.4 -27.8 -7.5Z" fill="#2A1A12"/><path d="M-27.9 1.4Q-26.5 32.3 -1.7 31.7Q26.5 32.3 27.9 1.4Q20.2 17.9 -3.5 10.4Q-20.2 17.9 -27.9 1.4Z" fill="#2A1A12"/><ellipse cx="-13.6" cy="3.9" rx="2.9" ry="3.7" fill="#12294A"/><circle cx="-14.6" cy="2.6" r="1" fill="#FFFFFF"/><ellipse cx="5.5" cy="3.9" rx="2.9" ry="3.7" fill="#12294A"/><circle cx="4.5" cy="2.6" r="1" fill="#FFFFFF"/><path d="M-8.7 -5.5Q-12.2 -8.9 -16.2 -5.2" fill="none" stroke="#2A1A12" stroke-width="1.9" stroke-linecap="round"/><path d="M3.5 -5.5Q6.9 -8.9 10.9 -5.2" fill="none" stroke="#2A1A12" stroke-width="1.9" stroke-linecap="round"/><path d="M-6.9 7.5Q-9.5 10.7 -6.3 11.5" fill="none" stroke="#87512E" stroke-width="2" stroke-linecap="round"/><path d="M-8.5 13.8Q-4.1 13 .2 13.8Q-1.3 19.6 -4.1 19.3Q-7 19.6 -8.5 13.8Z" fill="#7A2533"/></g></g><g transform="translate(-86 -158) rotate(-12)"><path d="M-68.2 -.8Q-37.2 -21.8 0 -11.9Q37.2 -21.8 68.2 -.8L68.2 6.3Q37.2 -11.9 0 4Q-37.2 -11.9 -68.2 6.3Z" fill="#9C3D2C"/><path d="M-62 -3.2Q-34.7 -24.6 0 -13.5L0 .8Q-34.7 -14.3 -62 2.4Z" fill="#FFF9E8"/><path d="M62 -3.2Q34.7 -24.6 0 -13.5L0 .8Q34.7 -14.3 62 2.4Z" fill="#FFF3D2"/><path d="M-49.6 -8.3Q-27.3 -19.8 -8.7 -12.7M8.7 -12.7Q27.3 -19.8 49.6 -8.3" fill="none" stroke="#E2CFA6" stroke-width="3.1" stroke-linecap="round"/><path d="M-49.6 -3.6Q-27.3 -15.1 -8.7 -7.9M8.7 -7.9Q27.3 -15.1 49.6 -3.6" fill="none" stroke="#E2CFA6" stroke-width="3.1" stroke-linecap="round"/><path d="M-49.6 1.2Q-27.3 -10.3 -8.7 -3.2M8.7 -3.2Q27.3 -10.3 49.6 1.2" fill="none" stroke="#E2CFA6" stroke-width="3.1" stroke-linecap="round"/><path d="M0 -13.5L0 3.2" fill="none" stroke="#D8C08E" stroke-width="2.5" stroke-linecap="round" stroke-linejoin="round"/></g><g filter="url(#a-piece)"><path d="M10.2 -206.3L19.1 -143.9L-40 -150" fill="none" stroke="#1B9BD1" stroke-width="20.2" stroke-linecap="round" stroke-linejoin="round"/><circle cx="-46.8" cy="-150.7" r="12.5" fill="#A5683F"/></g></g></g></g><g class="kid" transform="translate(226 424)"><use href="#a-k3" transform="matrix(1 0 -.3 -.1 0 0)" filter="url(#a-cast)"/><g filter="url(#a-paper)"><g id="a-k3"><path d="M35.9 -182.4L2 -160.1L40 -160" fill="none" stroke="#E3B394" stroke-width="15.4" stroke-linecap="round" stroke-linejoin="round"/><path d="M35.9 -182.4L16.3 -169.4" fill="none" stroke="#D66615" stroke-width="20.5" stroke-linecap="round" stroke-linejoin="round"/><circle cx="46.3" cy="-160" r="11.4" fill="#E3B394"/><circle cx="45.1" cy="-151.5" r="4.8" fill="#E3B394"/><path d="M13 -119.2L37.5 -62.3L18 -6" fill="none" stroke="#0F223E" stroke-width="20.7" stroke-linecap="round" stroke-linejoin="round"/><path d="M7.5 1.8L6.2 -8.8Q5.6 -15.9 14.7 -14.8L25.2 -12.4Q42.2 -13.1 40.9 1.8Z" fill="#8BEA3C"/><path d="M6.9 -1.7L41.6 -1.7L41.6 2.8L6.9 2.8Z" fill="#FFFFFF" stroke="#FFFFFF" stroke-width="2.8" stroke-linejoin="round"/><path d="M-13.7 -125.8L-3.7 -64.7L-14 -6" fill="none" stroke="#12294A" stroke-width="20.7" stroke-linecap="round" stroke-linejoin="round"/><path d="M-24.5 1.8L-25.8 -8.8Q-26.4 -15.9 -17.3 -14.8L-6.8 -12.4Q10.2 -13.1 8.9 1.8Z" fill="#8BEA3C"/><path d="M-25.1 -1.7L9.6 -1.7L9.6 2.8L-25.1 2.8Z" fill="#FFFFFF" stroke="#FFFFFF" stroke-width="2.8" stroke-linejoin="round"/><path d="M-23.3 -139.2L27.7 -126.5L29.2 -90.1L-41.7 -107.8Z" fill="#0B5C80"/><path d="M-26.5 -132.2Q-23.7 -165.2 -15.9 -189Q-11.8 -205.3 .9 -202.1L35.9 -193.4Q48.6 -190.2 44.5 -174Q41.9 -148.8 27.2 -118.8Z" fill="#FF7A1A"/><g filter="url(#a-piece)"><g transform="translate(24.7 -223.1) rotate(18.9)"><path d="M-33.7 -2.9Q-37.6 32 -31 45.1L28.9 45.1Q35.5 32 31.6 -2.9Z" fill="#C9752F"/><circle cx="-1" cy="-2.9" r="32" fill="#C9752F"/><circle cx="-26.6" cy="3.5" r="5.5" fill="#F7D7BC"/><ellipse cx="0" cy="0" rx="29.1" ry="29.1" fill="#F7D7BC"/><path d="M-29.8 -6.4A32 32 0 1 1 29.8 -6.4Q24 -14.6 16.2 -11.1Q3.1 -19.8 -14.3 -10.2Q-22.6 -17.5 -29.8 -6.4Z" fill="#C9752F"/><path d="M-28.5 -11.1Q0 -36.4 28.5 -11.1" fill="none" stroke="#FFD93B" stroke-width="4.7" stroke-linecap="round"/><ellipse cx="-5.5" cy="3.6" rx="2.9" ry="3.8" fill="#12294A"/><circle cx="-6.5" cy="2.3" r="1" fill="#FFFFFF"/><ellipse cx="13.8" cy="3.6" rx="2.9" ry="3.8" fill="#12294A"/><circle cx="12.7" cy="2.3" r="1" fill="#FFFFFF"/><circle cx="-9" cy="10.2" r=".7" fill="#E3B394"/><circle cx="-5.5" cy="11.4" r=".7" fill="#E3B394"/><circle cx="-7.3" cy="13.1" r=".7" fill="#E3B394"/><circle cx="10.3" cy="10.2" r=".7" fill="#E3B394"/><circle cx="13.8" cy="11.4" r=".7" fill="#E3B394"/><circle cx="12" cy="13.1" r=".7" fill="#E3B394"/><path d="M7 7.6Q9.6 10.8 6.4 11.6" fill="none" stroke="#E3B394" stroke-width="2" stroke-linecap="round"/><path d="M-1.6 13.4Q4.2 19.5 10 13.4" fill="none" stroke="#12294A" stroke-width="2.2" stroke-linecap="round"/></g></g><g filter="url(#a-piece)"><path d="M-4.3 -192.4L23.9 -163.2L52.6 -138.3" fill="none" stroke="#F7D7BC" stroke-width="15.4" stroke-linecap="round" stroke-linejoin="round"/><path d="M-4.3 -192.4L12 -175.5" fill="none" stroke="#FF7A1A" stroke-width="20.5" stroke-linecap="round" stroke-linejoin="round"/><circle cx="57.3" cy="-134.2" r="11.4" fill="#F7D7BC"/><circle cx="50.9" cy="-128.5" r="4.8" fill="#F7D7BC"/></g></g></g></g><g class="kid" transform="translate(120 446)"><use href="#a-k4" transform="matrix(1 0 -.3 -.1 0 0)" filter="url(#a-cast)"/><g filter="url(#a-paper)"><g id="a-k4"><path d="M15.2 -88.1L34.3 -117.2L49.5 -145.9" fill="none" stroke="#87512E" stroke-width="14.6" stroke-linecap="round" stroke-linejoin="round"/><path d="M15.2 -88.1L26.3 -105" fill="none" stroke="#094D6B" stroke-width="19.5" stroke-linecap="round" stroke-linejoin="round"/><circle cx="52.3" cy="-151.1" r="10.8" fill="#87512E"/><circle cx="59" cy="-146.4" r="4.5" fill="#87512E"/><path d="M-26.8 -34.8L25.9 -38.4L27.3 -25.9L-26.4 -22.2Z" fill="#3F6F9E" stroke="#3F6F9E" stroke-width="11.6" stroke-linejoin="round"/><path d="M-26 -24.2Q-32.2 -57.6 -32 -79.5Q-33 -94 -21.1 -94.8L11.9 -97.1Q23.8 -97.9 24.8 -83.4Q29.2 -61.9 26.6 -27.9Z" fill="#0B5C80"/><path d="M-29.6 -61.1L25 -64.9" fill="none" stroke="#8BEA3C" stroke-width="4.6" stroke-linecap="butt" stroke-linejoin="round"/><path d="M13.5 -29.6L65.9 -21.4L15.3 -15.3" fill="none" stroke="#3F6F9E" stroke-width="23.2" stroke-linecap="round" stroke-linejoin="round"/><path d="M25.4 -8.4L26.6 -17.8Q27.2 -24.1 18.5 -23.1L8.5 -21Q-7.8 -21.6 -6.6 -8.4Z" fill="#FFD93B"/><path d="M26 -11.5L-7.2 -11.5L-7.2 -7.5L26 -7.5Z" fill="#FFFFFF" stroke="#FFFFFF" stroke-width="2.5" stroke-linejoin="round"/><path d="M-13.4 -27.7L-66 -21.3L-15.5 -14.2" fill="none" stroke="#3F6F9E" stroke-width="23.2" stroke-linecap="round" stroke-linejoin="round"/><path d="M-25.6 -7.2L-26.8 -16.7Q-27.4 -23 -18.7 -22L-8.6 -19.8Q7.6 -20.5 6.4 -7.2Z" fill="#FFD93B"/><path d="M-26.2 -10.4L7 -10.4L7 -6.4L-26.2 -6.4Z" fill="#FFFFFF" stroke="#FFFFFF" stroke-width="2.5" stroke-linejoin="round"/><g filter="url(#a-piece)"><g transform="translate(-6.4 -121.4) rotate(-11.4)"><circle cx="-.5" cy="-1.7" r="28.9" fill="#1C1717"/><circle cx="-26.1" cy="3.4" r="5.4" fill="#A5683F"/><ellipse cx="0" cy="0" rx="28.3" ry="28.3" fill="#A5683F"/><path d="M-23.7 -11.3A28.9 28.9 0 1 1 23.7 -11.3Q18.1 -19.2 8 -15.8Q2.3 -24.3 -.5 -15Q-16.7 -22.1 -23.7 -11.3Z" fill="#1C1717"/><ellipse cx="-6.2" cy="1.4" rx="2.8" ry="3.7" fill="#12294A"/><circle cx="-7.2" cy=".1" r="1" fill="#FFFFFF"/><ellipse cx="12.9" cy="1.4" rx="2.8" ry="3.7" fill="#12294A"/><circle cx="11.9" cy=".1" r="1" fill="#FFFFFF"/><ellipse cx="-10.2" cy="11.3" rx="3.7" ry="2.3" fill="#FF8A7A" opacity=".45"/><ellipse cx="13.8" cy="11.3" rx="3.7" ry="2.3" fill="#FF8A7A" opacity=".45"/><path d="M5.9 7.4Q8.5 10.5 5.4 11.3" fill="none" stroke="#87512E" stroke-width="2" stroke-linecap="round"/><path d="M-4 12.2Q3.1 13.6 10.1 12.2Q8.7 23.2 3.1 22.6Q-2.6 23.2 -4 12.2Z" fill="#7A2533"/><ellipse cx="3.8" cy="19.8" rx="3.2" ry="2" fill="#F28C8C"/></g></g><g filter="url(#a-piece)"><path d="M-23.2 -85.4L-54.7 -70.7L-44 -40" fill="none" stroke="#A5683F" stroke-width="14.6" stroke-linecap="round" stroke-linejoin="round"/><path d="M-23.2 -85.4L-41.5 -76.8" fill="none" stroke="#0B5C80" stroke-width="19.5" stroke-linecap="round" stroke-linejoin="round"/><circle cx="-42" cy="-34.4" r="10.8" fill="#A5683F"/></g></g></g></g><g transform="translate(308 222)"><path class="spark" style="animation-delay:0s" d="M0 -7Q0 0 7 0Q0 0 0 7Q0 0 -7 0Q0 0 0 -7Z" fill="#8BEA3C"/></g><g transform="translate(468 232)"><path class="spark" style="animation-delay:1.4s" d="M0 -5Q0 0 5 0Q0 0 0 5Q0 0 -5 0Q0 0 0 -5Z" fill="#8BEA3C"/></g><g transform="translate(176 246)"><path class="spark" style="animation-delay:2.6s" d="M0 -4Q0 0 4 0Q0 0 0 4Q0 0 -4 0Q0 0 0 -4Z" fill="#8BEA3C"/></g></svg>
