<svg viewBox="0 0 560 460" width="560" height="460" xmlns="http://www.w3.org/2000/svg"><defs><filter id="a-paper" x="-15%" y="-15%" width="130%" height="130%" color-interpolation-filters="sRGB"><feFlood flood-color="#FFD93B"/><feComposite in2="SourceAlpha" operator="in"/><feOffset dx="-3.4" dy="-2.6" result="rim"/><feFlood flood-color="#0B5C80" flood-opacity=".22"/><feComposite in2="SourceAlpha" operator="in"/><feOffset dx="2" dy="2.2" result="drop"/><feMerge><feMergeNode in="drop"/><feMergeNode in="rim"/><feMergeNode in="SourceGraphic"/></feMerge></filter><filter id="a-cast" x="-30%" y="-60%" width="160%" height="220%" color-interpolation-filters="sRGB"><feFlood flood-color="#0B5C80" flood-opacity=".2"/><feComposite in2="SourceAlpha" operator="in"/></filter><radialGradient id="a-glow"><stop offset="0" stop-color="#FFF6C8" stop-opacity=".95"/><stop offset=".55" stop-color="#FFE680" stop-opacity=".45"/><stop offset="1" stop-color="#FFE680" stop-opacity="0"/></radialGradient><linearGradient id="a-beam" x1="0" y1="0" x2=".55" y2="1"><stop offset="0" stop-color="#FFEC9A" stop-opacity=".72"/><stop offset="1" stop-color="#FFE27A" stop-opacity=".36"/></linearGradient><linearGradient id="a-sky" x1="0" y1="0" x2="0" y2="1"><stop offset="0" stop-color="#BFE2F4"/><stop offset=".62" stop-color="#E9F5FB"/><stop offset="1" stop-color="#FFEFC9"/></linearGradient><radialGradient id="a-sun"><stop offset="0" stop-color="#FFF8D6"/><stop offset=".3" stop-color="#FFE68A"/><stop offset="1" stop-color="#FFE68A" stop-opacity="0"/></radialGradient><linearGradient id="a-wall" x1="0" y1="0" x2="0" y2="1"><stop offset="0" stop-color="#CFE8F4"/><stop offset="1" stop-color="#D8EDF6"/></linearGradient><linearGradient id="a-floor" x1="0" y1="0" x2="0" y2="1"><stop offset="0" stop-color="#D7E6EA"/><stop offset="1" stop-color="#E8F1F3"/></linearGradient></defs><rect width="560" height="300" fill="url(#a-wall)"/><rect y="300" width="560" height="160" fill="url(#a-floor)"/><path d="M-560 300L-1720.7 460M-490 300L-1554 460M-420 300L-1387.3 460M-350 300L-1220.5 460M-280 300L-1053.8 460M-210 300L-887.1 460M-140 300L-720.4 460M-70 300L-553.6 460M0 300L-386.9 460M70 300L-220.2 460M140 300L-53.5 460M210 300L113.3 460M280 300L280 460M350 300L446.7 460M420 300L613.5 460M490 300L780.2 460M560 300L946.9 460M630 300L1113.6 460M700 300L1280.4 460M770 300L1447.1 460M840 300L1613.8 460M910 300L1780.5 460M980 300L1947.3 460M1050 300L2114 460M1120 300L2280.7 460M0 320H560M0 352H560M0 396H560" stroke="#CADCE2" stroke-width="1.2"/><rect y="292" width="560" height="12" fill="#BFDDEA"/><g class="scene-light" data-beam=""><path d="M40 26L216 26L452 456L190 456L40 258Z" fill="url(#a-beam)"/></g><clipPath id="a-v40"><rect x="40" y="26" width="176" height="232"/></clipPath><g clip-path="url(#a-v40)"><rect x="40" y="26" width="176" height="232" fill="url(#a-sky)"/><circle cx="96" cy="210" r="96.8" fill="url(#a-sun)"/><circle cx="96" cy="210" r="17.6" fill="#FFF3B8"/><path d="M40 211.6C92.8 204.6 163.2 216.2 216 209.3V258H40Z" fill="#E4F0F7"/><rect x="183.6" y="221.2" width="4.8" height="7.2" fill="#6C5445"/><path d="M186 187.6L198 205.6H174Z" fill="#5E8C86"/><path d="M186 187.6L190.2 193.8Q186 191.9 181.8 193.8Z" fill="#FFFFFF"/><path d="M186 198.4L202.8 216.4H169.2Z" fill="#5E8C86"/><path d="M186 198.4L191.9 204.6Q186 202.7 180.1 204.6Z" fill="#FFFFFF"/><path d="M186 209.2L207.6 227.2H164.4Z" fill="#5E8C86"/><path d="M186 209.2L193.6 215.4Q186 213.5 178.4 215.4Z" fill="#FFFFFF"/><path d="M40 223.2C101.6 216.2 145.6 230.2 216 220.9V258H40Z" fill="#FFFFFF"/></g><path fill-rule="evenodd" d="M31 17h194v250h-194ZM40 26v232h176v-232Z" fill="#FFFFFF"/><rect x="125.5" y="26" width="5" height="232" fill="#FFFFFF"/><rect x="40" y="100.8" width="176" height="5" fill="#FFFFFF"/><rect x="40" y="178.2" width="176" height="5" fill="#FFFFFF"/><rect x="24" y="264" width="208" height="10" rx="3" fill="#FFFFFF"/><rect x="24" y="272" width="208" height="3" fill="#BFDDEA"/><path d="M330 22Q445 50 560 20" fill="none" stroke="#0B5C80" stroke-width="2"/><path d="M338.8 28.1H378.8L358.8 60.9Z" fill="#1B9BD1"/><g transform="translate(347.8 31.1) scale(.5)"><path d="M6 19H22M14 19V33M29 19V33M29.5 27 39 19M33 24 40 33" fill="none" stroke="#FFFFFF" stroke-width="5" stroke-linecap="round" stroke-linejoin="round"/><circle cx="14" cy="10" r="4.4" fill="#FFD93B"/><circle cx="29" cy="10" r="4.4" fill="#FFD93B"/></g><path d="M396.2 34.8H436.2L416.2 67.6Z" fill="#FFD93B"/><path d="M453.8 34.3H493.8L473.8 67.1Z" fill="#8BEA3C"/><path d="M511.2 26.6H551.2L531.2 59.4Z" fill="#FF7A1A"/><g class="scene-light" data-beam=""><path d="M153.8 337.8L217.7 337.8L234.9 374.2L166.1 374.2ZM167.4 377.8L236.5 377.8L253.7 414.2L179.7 414.2ZM180.9 417.8L255.4 417.8L272.6 454.2L193.3 454.2ZM224 337.8L288 337.8L310.4 374.2L241.6 374.2ZM243.4 377.8L312.6 377.8L335 414.2L261 414.2ZM262.8 417.8L337.2 417.8L359.6 454.2L280.4 454.2ZM294.3 337.8L358.2 337.8L385.9 374.2L317.2 374.2ZM319.4 377.8L388.6 377.8L416.3 414.2L342.3 414.2ZM344.6 417.8L419 417.8L446.7 454.2L367.5 454.2Z" fill="#FFE68F"/></g><clipPath id="a-rug"><ellipse cx="300" cy="404" rx="214" ry="46" fill="#FFFFFF"/></clipPath><ellipse cx="300" cy="404" rx="214" ry="46" fill="#0B5C80"/><ellipse cx="300" cy="404" rx="202" ry="39" fill="#2A86B4"/><g clip-path="url(#a-rug)" opacity=".42"><path d="M153.8 337.8L217.7 337.8L234.9 374.2L166.1 374.2ZM167.4 377.8L236.5 377.8L253.7 414.2L179.7 414.2ZM180.9 417.8L255.4 417.8L272.6 454.2L193.3 454.2ZM224 337.8L288 337.8L310.4 374.2L241.6 374.2ZM243.4 377.8L312.6 377.8L335 414.2L261 414.2ZM262.8 417.8L337.2 417.8L359.6 454.2L280.4 454.2ZM294.3 337.8L358.2 337.8L385.9 374.2L317.2 374.2ZM319.4 377.8L388.6 377.8L416.3 414.2L342.3 414.2ZM344.6 417.8L419 417.8L446.7 454.2L367.5 454.2Z" fill="#FFE68F"/></g><g class="scene-light" data-beam=""><circle class="mote" style="animation-delay:-1.3s;animation-duration:11s" cx="200" cy="140" r="2" fill="#FFFFFF" opacity=".85"/><circle class="mote" style="animation-delay:-3s;animation-duration:12.3s" cx="260" cy="210" r="1.6" fill="#FFFFFF" opacity=".85"/><circle class="mote" style="animation-delay:-4.7s;animation-duration:13.6s" cx="300" cy="120" r="2" fill="#FFFFFF" opacity=".85"/><circle class="mote" style="animation-delay:-6.4s;animation-duration:14.9s" cx="232" cy="280" r="1.4" fill="#FFFFFF" opacity=".85"/></g><g class="thing" transform="translate(488 318)"><use href="#a-o1" transform="matrix(1 0 -.3 -.1 0 0)" filter="url(#a-cast)"/><g filter="url(#a-paper)"><g id="a-o1"><rect x="-58" y="-92" width="116" height="92" fill="#C99C6A"/><rect x="-52" y="-86" width="104" height="80" fill="#B98B5C"/><rect x="-63" y="-99" width="126" height="9" rx="2" fill="#E0B98A"/><rect x="-58" y="-49" width="116" height="7" fill="#E0B98A"/><rect x="-48" y="-75.6" width="11" height="26.6" rx="1.5" fill="#1B9BD1"/><rect x="-46" y="-69.8" width="7" height="2.4" fill="#8DCDE8"/><rect x="-35.5" y="-82.3" width="9" height="33.3" rx="1.5" fill="#FFD93B"/><rect x="-33.5" y="-75" width="5" height="2.4" fill="#FFEC9D"/><rect x="-25" y="-78.6" width="13" height="29.6" rx="1.5" fill="#FF7A1A"/><rect x="-23" y="-72.1" width="9" height="2.4" fill="#FFBC8C"/><rect x="-10.5" y="-84.2" width="10" height="35.1" rx="1.5" fill="#9C3D2C"/><rect x="-8.5" y="-76.4" width="6" height="2.4" fill="#CD9E95"/><rect x="1" y="-74.2" width="12" height="25.2" rx="1.5" fill="#8BEA3C"/><rect x="3" y="-68.6" width="8" height="2.4" fill="#C5F49D"/><rect x="14.5" y="-80.8" width="9" height="31.8" rx="1.5" fill="#0B5C80"/><rect x="16.5" y="-73.8" width="5" height="2.4" fill="#85ADBF"/><g transform="translate(29 -49) rotate(18)"><rect x="0" y="-30.3" width="10" height="30.3" rx="1.5" fill="#8BEA3C"/></g><rect x="-48" y="-39.3" width="13" height="33.3" rx="1.5" fill="#9C3D2C"/><rect x="-46" y="-32" width="9" height="2.4" fill="#CD9E95"/><rect x="-33.5" y="-35.6" width="10" height="29.6" rx="1.5" fill="#8BEA3C"/><rect x="-31.5" y="-29.1" width="6" height="2.4" fill="#C5F49D"/><rect x="-22" y="-41.1" width="9" height="35.1" rx="1.5" fill="#0B5C80"/><rect x="-20" y="-33.4" width="5" height="2.4" fill="#85ADBF"/><rect x="-11.5" y="-31.2" width="12" height="25.2" rx="1.5" fill="#6A4A7A"/><rect x="-9.5" y="-25.6" width="8" height="2.4" fill="#B4A4BC"/><rect x="2" y="-37.8" width="11" height="31.8" rx="1.5" fill="#FFD93B"/><rect x="4" y="-30.8" width="7" height="2.4" fill="#FFEC9D"/><rect x="14.5" y="-34.9" width="10" height="28.9" rx="1.5" fill="#1B9BD1"/><rect x="16.5" y="-28.5" width="6" height="2.4" fill="#8DCDE8"/><g transform="translate(30 -6) rotate(18)"><rect x="0" y="-30.3" width="10" height="30.3" rx="1.5" fill="#FFD93B"/></g></g></g></g><g class="thing" transform="translate(196 378)"><use href="#a-o2" transform="matrix(1 0 -.3 -.1 0 0)" filter="url(#a-cast)"/><g filter="url(#a-paper)"><g id="a-o2"><rect x="-43" y="-29.2" width="86" height="29.2" rx="14.6" fill="#6FBB30"/><ellipse cx="0" cy="-18.1" rx="42.1" ry="13.2" fill="#8BEA3C"/><path d="M0 -18.1L-17.2 -24M0 -18.1L-17.2 -12.3M0 -18.1L17.2 -24M0 -18.1L17.2 -12.3" stroke="#64A82B" stroke-width="1.8" stroke-linecap="round"/><circle cx="0" cy="-18.1" r="3" fill="#5B9A27"/></g></g></g><g class="thing" transform="translate(404 380)"><use href="#a-o3" transform="matrix(1 0 -.3 -.1 0 0)" filter="url(#a-cast)"/><g filter="url(#a-paper)"><g id="a-o3"><rect x="-42" y="-28.6" width="84" height="28.6" rx="14.3" fill="#CCAD2F"/><ellipse cx="0" cy="-17.7" rx="41.2" ry="12.9" fill="#FFD93B"/><path d="M0 -17.7L-16.8 -23.4M0 -17.7L-16.8 -12M0 -17.7L16.8 -23.4M0 -17.7L16.8 -12" stroke="#B79C2A" stroke-width="1.8" stroke-linecap="round"/><circle cx="0" cy="-17.7" r="2.9" fill="#A88F26"/></g></g></g><circle cx="300" cy="288" r="110" fill="url(#a-glow)"/><g class="thing" transform="translate(300 404)"><use href="#a-o4" transform="matrix(1 0 -.3 -.1 0 0)" filter="url(#a-cast)"/><g filter="url(#a-paper)"><g id="a-o4"><path d="M-36.5 -90L-44.2 0M36.5 -90L44.2 0" stroke="#084560" stroke-width="7" stroke-linecap="round"/><rect x="-48" y="-96" width="96" height="13" rx="6" fill="#0B5C80"/><g transform="translate(0 -104) rotate(-4)"><path d="M-82.5 -1.3Q-45 -34.7 0 -18.9Q45 -34.7 82.5 -1.3L82.5 10.1Q45 -18.9 0 6.3Q-45 -18.9 -82.5 10.1Z" fill="#9C3D2C"/><path d="M-75 -5Q-42 -39.1 0 -21.4L0 1.3Q-42 -22.7 -75 3.8Z" fill="#FFF9E8"/><path d="M75 -5Q42 -39.1 0 -21.4L0 1.3Q42 -22.7 75 3.8Z" fill="#FFF3D2"/><path d="M-60 -13.2Q-33 -31.5 -10.5 -20.2M10.5 -20.2Q33 -31.5 60 -13.2" fill="none" stroke="#E2CFA6" stroke-width="3.8" stroke-linecap="round"/><path d="M-60 -5.7Q-33 -23.9 -10.5 -12.6M10.5 -12.6Q33 -23.9 60 -5.7" fill="none" stroke="#E2CFA6" stroke-width="3.8" stroke-linecap="round"/><path d="M-60 1.9Q-33 -16.4 -10.5 -5M10.5 -5Q33 -16.4 60 1.9" fill="none" stroke="#E2CFA6" stroke-width="3.8" stroke-linecap="round"/><path d="M0 -21.4L0 5" fill="none" stroke="#D8C08E" stroke-width="3" stroke-linecap="round" stroke-linejoin="round"/></g></g></g></g><g class="thing" transform="translate(150 438)"><use href="#a-o5" transform="matrix(1 0 -.3 -.1 0 0)" filter="url(#a-cast)"/><g filter="url(#a-paper)"><g id="a-o5"><rect x="-56" y="-38.1" width="112" height="38.1" rx="19" fill="#CC6114"/><ellipse cx="0" cy="-23.6" rx="54.9" ry="17.1" fill="#FF7A1A"/><path d="M0 -23.6L-22.4 -31.2M0 -23.6L-22.4 -16M0 -23.6L22.4 -31.2M0 -23.6L22.4 -16" stroke="#B75712" stroke-width="1.8" stroke-linecap="round"/><circle cx="0" cy="-23.6" r="3.9" fill="#A85011"/></g></g></g><g class="thing" transform="translate(452 440)"><use href="#a-o6" transform="matrix(1 0 -.3 -.1 0 0)" filter="url(#a-cast)"/><g filter="url(#a-paper)"><g id="a-o6"><rect x="-56" y="-38.1" width="112" height="38.1" rx="19" fill="#157CA7"/><ellipse cx="0" cy="-23.6" rx="54.9" ry="17.1" fill="#1B9BD1"/><path d="M0 -23.6L-22.4 -31.2M0 -23.6L-22.4 -16M0 -23.6L22.4 -31.2M0 -23.6L22.4 -16" stroke="#136F96" stroke-width="1.8" stroke-linecap="round"/><circle cx="0" cy="-23.6" r="3.9" fill="#116689"/></g></g></g><g transform="translate(246 266)"><path class="spark" style="animation-delay:0s" d="M0 -7Q0 0 7 0Q0 0 0 7Q0 0 -7 0Q0 0 0 -7Z" fill="#8BEA3C"/></g><g transform="translate(364 262)"><path class="spark" style="animation-delay:1.4s" d="M0 -5Q0 0 5 0Q0 0 0 5Q0 0 -5 0Q0 0 0 -5Z" fill="#8BEA3C"/></g><g transform="translate(300 236)"><path class="spark" style="animation-delay:2.6s" d="M0 -4Q0 0 4 0Q0 0 0 4Q0 0 -4 0Q0 0 0 -4Z" fill="#8BEA3C"/></g></svg>
