<svg viewBox="0 0 640 350" width="640" height="350" xmlns="http://www.w3.org/2000/svg"><defs><filter id="t-paper" x="-15%" y="-15%" width="130%" height="130%" color-interpolation-filters="sRGB"><feFlood flood-color="#FFD93B"/><feComposite in2="SourceAlpha" operator="in"/><feOffset dx="-3.4" dy="-2.6" result="rim"/><feFlood flood-color="#0B5C80" flood-opacity=".22"/><feComposite in2="SourceAlpha" operator="in"/><feOffset dx="2" dy="2.2" result="drop"/><feMerge><feMergeNode in="drop"/><feMergeNode in="rim"/><feMergeNode in="SourceGraphic"/></feMerge></filter><filter id="t-cast" x="-30%" y="-60%" width="160%" height="220%" color-interpolation-filters="sRGB"><feFlood flood-color="#0B5C80" flood-opacity=".2"/><feComposite in2="SourceAlpha" operator="in"/></filter><radialGradient id="t-glow"><stop offset="0" stop-color="#FFF6C8" stop-opacity=".95"/><stop offset=".55" stop-color="#FFE680" stop-opacity=".45"/><stop offset="1" stop-color="#FFE680" stop-opacity="0"/></radialGradient><linearGradient id="t-beam" x1="0" y1="0" x2=".55" y2="1"><stop offset="0" stop-color="#FFEC9A" stop-opacity=".72"/><stop offset="1" stop-color="#FFE27A" stop-opacity=".36"/></linearGradient><linearGradient id="t-sky" x1="0" y1="0" x2="0" y2="1"><stop offset="0" stop-color="#BFE2F4"/><stop offset=".62" stop-color="#E9F5FB"/><stop offset="1" stop-color="#FFEFC9"/></linearGradient><radialGradient id="t-sun"><stop offset="0" stop-color="#FFF8D6"/><stop offset=".3" stop-color="#FFE68A"/><stop offset="1" stop-color="#FFE68A" stop-opacity="0"/></radialGradient><linearGradient id="t-wall" x1="0" y1="0" x2="0" y2="1"><stop offset="0" stop-color="#CFE8F4"/><stop offset="1" stop-color="#D8EDF6"/></linearGradient><linearGradient id="t-floor" x1="0" y1="0" x2="0" y2="1"><stop offset="0" stop-color="#D7E6EA"/><stop offset="1" stop-color="#E8F1F3"/></linearGradient></defs><rect width="640" height="206" fill="url(#t-wall)"/><rect y="206" width="640" height="144" fill="url(#t-floor)"/><path d="M-512 206L-1546.7 350M-448 206L-1403.1 350M-384 206L-1259.5 350M-320 206L-1115.9 350M-256 206L-972.3 350M-192 206L-828.7 350M-128 206L-685.1 350M-64 206L-541.6 350M0 206L-398 350M64 206L-254.4 350M128 206L-110.8 350M192 206L32.8 350M256 206L176.4 350M320 206L320 350M384 206L463.6 350M448 206L607.2 350M512 206L750.8 350M576 206L894.4 350M640 206L1038 350M704 206L1181.6 350M768 206L1325.1 350M832 206L1468.7 350M896 206L1612.3 350M960 206L1755.9 350M1024 206L1899.5 350M1088 206L2043.1 350M1152 206L2186.7 350M0 246H640M0 290H640" stroke="#CADCE2" stroke-width="1.2"/><rect y="198" width="640" height="12" fill="#BFDDEA"/><ellipse cx="90" cy="100" rx="220" ry="160" fill="url(#t-sun)" opacity=".24"/><g class="scene-light" data-beam=""><path d="M26 16L154 16L380 218L436 300L276 300L26 176Z" fill="url(#t-beam)"/></g><clipPath id="t-v26"><rect x="26" y="16" width="128" height="160"/></clipPath><g clip-path="url(#t-v26)"><rect x="26" y="16" width="128" height="160" fill="url(#t-sky)"/><circle cx="62" cy="120" r="70.4" fill="url(#t-sun)"/><circle cx="62" cy="120" r="12.8" fill="#FFF3B8"/><path d="M26 144C64.4 139.2 115.6 147.2 154 142.4V176H26Z" fill="#E4F0F7"/><rect x="126" y="136" width="4" height="6" fill="#6C5445"/><path d="M128 108L138 123H118Z" fill="#5E8C86"/><path d="M128 108L131.5 113.2Q128 111.6 124.5 113.2Z" fill="#FFFFFF"/><path d="M128 117L142 132H114Z" fill="#5E8C86"/><path d="M128 117L132.9 122.2Q128 120.6 123.1 122.2Z" fill="#FFFFFF"/><path d="M128 126L146 141H110Z" fill="#5E8C86"/><path d="M128 126L134.3 131.2Q128 129.6 121.7 131.2Z" fill="#FFFFFF"/><path d="M26 152C70.8 147.2 102.8 156.8 154 150.4V176H26Z" fill="#FFFFFF"/></g><path fill-rule="evenodd" d="M17 7h146v178h-146ZM26 16v160h128v-160Z" fill="#FFFFFF"/><rect x="87.5" y="16" width="5" height="160" fill="#FFFFFF"/><rect x="26" y="93.5" width="128" height="5" fill="#FFFFFF"/><rect x="10" y="182" width="160" height="10" rx="3" fill="#FFFFFF"/><rect x="10" y="190" width="160" height="3" fill="#BFDDEA"/><path d="M452 18Q546 42 640 16" fill="none" stroke="#0B5C80" stroke-width="2"/><path d="M455.5 23.2H495.5L475.5 56Z" fill="#1B9BD1"/><g transform="translate(464.5 26.2) scale(.5)"><path d="M6 19H22M14 19V33M29 19V33M29.5 27 39 19M33 24 40 33" fill="none" stroke="#FFFFFF" stroke-width="5" stroke-linecap="round" stroke-linejoin="round"/><circle cx="14" cy="10" r="4.4" fill="#FFD93B"/><circle cx="29" cy="10" r="4.4" fill="#FFD93B"/></g><path d="M502.5 29H542.5L522.5 61.8Z" fill="#FFD93B"/><path d="M549.5 28.5H589.5L569.5 61.3Z" fill="#8BEA3C"/><path d="M596.5 21.7H636.5L616.5 54.5Z" fill="#FF7A1A"/><g class="thing" transform="translate(520 176)"><g filter="url(#t-paper)"><g id="t-o1"><rect x="-59" y="-86" width="118" height="86" rx="4" fill="#C99C6A"/><rect x="-53" y="-80" width="106" height="74" rx="2" fill="#E9C995"/><g transform="translate(-30.7 -43) rotate(-7)"><rect x="-15.3" y="-24.9" width="30.7" height="49.9" rx="1.5" fill="#FFFFFF"/><circle cx="0" cy="0" r="6.1" fill="#FFD93B"/><path d="M8.6 0L12.3 0M6.1 6.1L8.7 8.7M0 8.6L0 12.3M-6.1 6.1L-8.7 8.7M-8.6 0L-12.3 0M-6.1 -6.1L-8.7 -8.7M0 -8.6L0 -12.3M6.1 -6.1L8.7 -8.7" stroke="#FF7A1A" stroke-width="2" stroke-linecap="round"/><circle cx="0" cy="-20.9" r="3" fill="#FF7A1A"/></g><g transform="translate(2.4 -48.2) rotate(5)"><rect x="-15.3" y="-24.9" width="30.7" height="49.9" rx="1.5" fill="#1B9BD1"/><rect x="-2.1" y="-16" width="4.3" height="31.9" fill="#FFFFFF"/><rect x="-8.6" y="-8" width="17.2" height="4.3" fill="#FFFFFF"/><circle cx="0" cy="-20.9" r="3" fill="#FFD93B"/></g><g transform="translate(33 -39.6) rotate(-4)"><rect x="-15.3" y="-24.9" width="30.7" height="49.9" rx="1.5" fill="#8BEA3C"/><path d="M0 4.1C-9.4 -2 -6.1 -8.7 0 -4.4C6.1 -8.7 9.4 -2 0 4.1Z" fill="#FF7A1A"/><circle cx="0" cy="-20.9" r="3" fill="#0B5C80"/></g></g></g></g><path d="M72 314L568 314L568 350L72 350Z" fill="#C9DFE8"/><g class="thing" transform="translate(0 0)"><g filter="url(#t-paper)"><g id="t-o2"><rect x="141" y="214" width="10" height="136" fill="#054D6B"/><rect x="489" y="214" width="10" height="136" fill="#054D6B"/><rect x="75" y="316" width="14" height="60" rx="3" fill="#075B7E"/><rect x="551" y="316" width="14" height="60" rx="3" fill="#075B7E"/><path d="M52 300L588 300L588 316L52 316Z" fill="#0B7FB0"/><path d="M120 214L520 214L588 300L52 300Z" fill="#F7FBFD"/></g></g></g><path d="M250 214L380 214L436 300L276 300Z" fill="#FFEFA8" opacity=".95"/><g class="thing" transform="translate(150 238)"><use href="#t-o3" transform="matrix(1 0 -.3 -.1 0 0)" filter="url(#t-cast)"/><g filter="url(#t-paper)"><g id="t-o3" transform="scale(.9)"><path d="M-9 -34V-54L-6 -60L-3 -54V-34Z" fill="#1B9BD1"/><path d="M-1 -34V-50L2 -56L5 -50V-34Z" fill="#FFD93B"/><path d="M7 -34V-58L10 -64L13 -58V-34Z" fill="#8BEA3C"/><rect x="-15" y="-34" width="30" height="34" rx="4" fill="#FF7A1A"/></g></g></g><g class="thing" transform="translate(204 254)"><use href="#t-o4" transform="matrix(1 0 -.3 -.1 0 0)" filter="url(#t-cast)"/><g filter="url(#t-paper)"><g id="t-o4"><path d="M12.6 -26.5C30.3 -27.2 30.3 -6.8 12.6 -8.8" fill="none" stroke="#D16415" stroke-width="4.4"/><rect x="-14.6" y="-34" width="29.2" height="34" rx="4.8" fill="#FF7A1A"/><rect x="-14.6" y="-17.7" width="29.2" height="4.8" fill="#FFC397"/><ellipse cx="0" cy="-34" rx="14.6" ry="5.4" fill="#CC6114"/><ellipse cx="0" cy="-33" rx="11.7" ry="3.4" fill="#6B3E26"/><rect x="-5.3" y="-36" width="5.8" height="4.4" rx="1.5" fill="#FFFFFF"/><rect x=".6" y="-35" width="5.1" height="4.1" rx="1.5" fill="#FFF0F0"/></g></g></g><path class="steam" d="M199.2 214.9c-5.4 -6.1 5.4 -11.6 0 -17.7s5.4 -11.6 0 -17.7" fill="none" stroke="#FFFFFF" stroke-width="2.4" stroke-linecap="round" opacity=".8"/><path class="steam" d="M208.8 214.9c-5.4 -6.1 5.4 -11.6 0 -17.7s5.4 -11.6 0 -17.7" fill="none" stroke="#FFFFFF" stroke-width="2.4" stroke-linecap="round" opacity=".6"/><g class="thing" transform="translate(468 242)"><use href="#t-o5" transform="matrix(1 0 -.3 -.1 0 0)" filter="url(#t-cast)"/><g filter="url(#t-paper)"><g id="t-o5"><path d="M10.9 -23.4C26.7 -24 26.7 -6 10.9 -7.8" fill="none" stroke="#167FAB" stroke-width="3.9"/><rect x="-12.9" y="-30" width="25.8" height="30" rx="4.2" fill="#1B9BD1"/><rect x="-12.9" y="-15.6" width="25.8" height="4.2" fill="#98D2EA"/><ellipse cx="0" cy="-30" rx="12.9" ry="4.8" fill="#157CA7"/><ellipse cx="0" cy="-29" rx="10.3" ry="3" fill="#6B3E26"/><rect x="-4.6" y="-31.8" width="5.1" height="3.9" rx="1.5" fill="#FFFFFF"/><rect x=".5" y="-30.9" width="4.5" height="3.6" rx="1.5" fill="#FFF0F0"/></g></g></g><path class="steam" d="M463.8 207.5c-4.8 -5.4 4.8 -10.2 0 -15.6s4.8 -10.2 0 -15.6" fill="none" stroke="#FFFFFF" stroke-width="2.4" stroke-linecap="round" opacity=".8"/><path class="steam" d="M472.2 207.5c-4.8 -5.4 4.8 -10.2 0 -15.6s4.8 -10.2 0 -15.6" fill="none" stroke="#FFFFFF" stroke-width="2.4" stroke-linecap="round" opacity=".6"/><g class="thing" transform="translate(112 292)"><use href="#t-o6" transform="matrix(1 0 -.3 -.1 0 0)" filter="url(#t-cast)"/><g filter="url(#t-paper)"><g id="t-o6"><path d="M-25 0L25 0L22 -25L-22 -25Z" fill="#FFFFFF"/><rect x="-23" y="-25" width="46" height="5" fill="#8BEA3C"/><path d="M-15 -9.5q2.5 -5 5 0t5 0q2.5 -5 5 0t5 0t5 0" fill="none" stroke="#12294A" stroke-width="1.8" stroke-linecap="round" stroke-linejoin="round"/></g></g></g><g class="thing" transform="translate(528 288)"><use href="#t-o7" transform="matrix(1 0 -.3 -.1 0 0)" filter="url(#t-cast)"/><g filter="url(#t-paper)"><g id="t-o7"><path d="M-23 0L23 0L20 -23L-20 -23Z" fill="#FFFFFF"/><rect x="-21" y="-23" width="42" height="4.6" fill="#FFD93B"/><path d="M-13.8 -8.7q2.3 -4.6 4.6 0t4.6 0q2.3 -6.9 4.6 0t4.6 0t4.6 0" fill="none" stroke="#12294A" stroke-width="1.8" stroke-linecap="round" stroke-linejoin="round"/></g></g></g><g class="thing" transform="translate(232 294)"><use href="#t-o8" transform="matrix(1 0 -.3 0 0 0)" filter="url(#t-cast)"/><g filter="url(#t-paper)"><g id="t-o8" transform="rotate(10)"><rect x="-20" y="-6" width="31.2" height="6" rx="1.5" fill="#1B9BD1"/><path d="M11.2 -6L20 -3L11.2 0Z" fill="#1683B1"/><rect x="-12" y="-6" width="13.6" height="6" fill="#98D2EA"/></g></g></g><g class="thing" transform="translate(426 294)"><use href="#t-o9" transform="matrix(1 0 -.3 0 0 0)" filter="url(#t-cast)"/><g filter="url(#t-paper)"><g id="t-o9" transform="rotate(-14)"><rect x="-18" y="-6" width="28.1" height="6" rx="1.5" fill="#FF7A1A"/><path d="M10.1 -6L18 -3L10.1 0Z" fill="#D86716"/><rect x="-10.8" y="-6" width="12.2" height="6" fill="#FFC397"/></g></g></g><ellipse cx="326" cy="252" rx="120" ry="58" fill="url(#t-glow)"/><g class="thing" transform="translate(326 262)"><g filter="url(#t-paper)"><g id="t-o10"><g transform="translate(0 0) rotate(0)"><path d="M-96.8 -1.6Q-52.8 -44.5 0 -24.3Q52.8 -44.5 96.8 -1.6L96.8 13Q52.8 -24.3 0 8.1Q-52.8 -24.3 -96.8 13Z" fill="#9C3D2C"/><path d="M-88 -6.5Q-49.3 -50.2 0 -27.5L0 1.6Q-49.3 -29.1 -88 4.9Z" fill="#FFF9E8"/><path d="M88 -6.5Q49.3 -50.2 0 -27.5L0 1.6Q49.3 -29.1 88 4.9Z" fill="#FFF3D2"/><path d="M-70.4 -17Q-38.7 -40.5 -12.3 -25.9M12.3 -25.9Q38.7 -40.5 70.4 -17" fill="none" stroke="#E2CFA6" stroke-width="4.4" stroke-linecap="round"/><path d="M-70.4 -7.3Q-38.7 -30.8 -12.3 -16.2M12.3 -16.2Q38.7 -30.8 70.4 -7.3" fill="none" stroke="#E2CFA6" stroke-width="4.4" stroke-linecap="round"/><path d="M-70.4 2.4Q-38.7 -21 -12.3 -6.5M12.3 -6.5Q38.7 -21 70.4 2.4" fill="none" stroke="#E2CFA6" stroke-width="4.4" stroke-linecap="round"/><path d="M0 -27.5L0 6.5" fill="none" stroke="#D8C08E" stroke-width="3.5" stroke-linecap="round" stroke-linejoin="round"/></g></g></g></g><g class="thing" transform="translate(602 348)"><use href="#t-o11" transform="matrix(1 0 -.3 -.1 0 0)" filter="url(#t-cast)"/><g filter="url(#t-paper)"><g id="t-o11"><path d="M-9.7 -72.2Q0 -88.2 9.7 -72.2" fill="none" stroke="#61A32A" stroke-width="4.6"/><path d="M-29.2 -62.3Q-40.1 -30.4 -28 -4.6" fill="none" stroke="#61A32A" stroke-width="6.1" stroke-linecap="round"/><path d="M-23.4 0Q-30.4 0 -30.4 -7L-30.4 -45.6Q-30.4 -76 0 -76Q30.4 -76 30.4 -45.6L30.4 -7Q30.4 0 23.4 0Z" fill="#8BEA3C"/><path d="M-24.3 -47.1Q0 -77.5 24.3 -47.1" fill="none" stroke="#61A32A" stroke-width="2.2"/><rect x="-21.9" y="-33.4" width="43.8" height="28.9" rx="7.6" fill="#1B9BD1"/><path d="M-16.4 -26.6L16.4 -26.6" fill="none" stroke="#126C92" stroke-width="2.2" stroke-linecap="round" stroke-linejoin="round"/><rect x="8.5" y="-27.4" width="4.5" height="11" rx="2" fill="#105D7D"/></g></g></g><g transform="translate(268 214)"><path class="spark" style="animation-delay:0s" d="M0 -7Q0 0 7 0Q0 0 0 7Q0 0 -7 0Q0 0 0 -7Z" fill="#8BEA3C"/></g><g transform="translate(396 206)"><path class="spark" style="animation-delay:1.4s" d="M0 -5Q0 0 5 0Q0 0 0 5Q0 0 -5 0Q0 0 0 -5Z" fill="#8BEA3C"/></g><g transform="translate(330 186)"><path class="spark" style="animation-delay:2.6s" d="M0 -4Q0 0 4 0Q0 0 0 4Q0 0 -4 0Q0 0 0 -4Z" fill="#8BEA3C"/></g></svg>
